<svg width="82.000000" height="82.000000" viewBox="0 0 82 82" fill="none" xmlns="http://www.w3.org/2000/svg" xmlns:xlink="http://www.w3.org/1999/xlink">
	<desc>
			Created with Pixso.
	</desc>
	<defs>
		<clipPath id="clip28_4992">
			<rect id="product-return 1" rx="0.000000" width="81.000000" height="81.000000" transform="translate(0.500000 0.500000)" fill="white" fill-opacity="0"/>
		</clipPath>
	</defs>
	<rect id="product-return 1" rx="0.000000" width="81.000000" height="81.000000" transform="translate(0.500000 0.500000)" fill="#FFFFFF" fill-opacity="0"/>
	<g clip-path="url(#clip28_4992)">
		<path id="Vector" d="M71.55 34.76C71.36 34.39 70.98 34.16 70.56 34.16L11.43 34.16C11.02 34.16 10.63 34.39 10.44 34.76L3.04 48.84C2.75 49.39 2.97 50.07 3.51 50.35C3.67 50.44 3.85 50.48 4.04 50.48L10.31 50.48L10.31 75.21C10.31 75.83 10.82 76.33 11.43 76.33L70.56 76.33C71.18 76.33 71.68 75.83 71.68 75.21L71.68 50.48L77.96 50.48C78.58 50.48 79.08 49.98 79.08 49.36C79.08 49.18 79.04 49 78.95 48.84L71.55 34.76ZM12.11 36.4L39.14 36.4L32.92 48.24L5.89 48.24L12.11 36.4ZM12.55 50.48L33.6 50.48C34.01 50.48 34.39 50.25 34.59 49.88L39.87 39.82L39.87 74.09L12.55 74.09L12.55 50.48ZM69.44 74.09L42.12 74.09L42.12 39.82L47.4 49.88C47.59 50.25 47.98 50.48 48.39 50.48L69.44 50.48L69.44 74.09ZM49.07 48.24L42.85 36.4L69.88 36.4L76.1 48.24L49.07 48.24Z" fill="#4295E4" fill-opacity="1.000000" fill-rule="nonzero"/>
		<path id="Vector" d="M70.56 34.16L11.43 34.16C11.02 34.16 10.63 34.39 10.44 34.76L3.04 48.84C2.75 49.39 2.97 50.07 3.51 50.35C3.67 50.44 3.85 50.48 4.04 50.48L10.31 50.48L10.31 75.21C10.31 75.83 10.82 76.33 11.43 76.33L70.56 76.33C71.18 76.33 71.68 75.83 71.68 75.21L71.68 50.48L77.96 50.48C78.58 50.48 79.08 49.98 79.08 49.36C79.08 49.18 79.04 49 78.95 48.84L71.55 34.76C71.36 34.39 70.98 34.16 70.56 34.16ZM39.14 36.4L32.92 48.24L5.89 48.24L12.11 36.4L39.14 36.4ZM33.6 50.48C34.01 50.48 34.39 50.25 34.59 49.88L39.87 39.82L39.87 74.09L12.55 74.09L12.55 50.48L33.6 50.48ZM42.12 74.09L42.12 39.82L47.4 49.88C47.59 50.25 47.98 50.48 48.39 50.48L69.44 50.48L69.44 74.09L42.12 74.09ZM42.85 36.4L69.88 36.4L76.1 48.24L49.07 48.24L42.85 36.4Z" stroke="#4295E4" stroke-opacity="1.000000" stroke-width="0.500000"/>
		<path id="Vector" d="M41 30.66C47.9 30.66 53.5 25.06 53.5 18.16C53.5 11.25 47.9 5.66 41 5.66C34.09 5.66 28.49 11.25 28.49 18.16L28.49 18.16C28.5 25.06 34.09 30.65 41 30.66ZM41 7.9C46.66 7.9 51.25 12.49 51.25 18.16C51.25 23.82 46.66 28.42 41 28.42C35.33 28.42 30.74 23.82 30.74 18.16C30.74 12.49 35.33 7.91 41 7.9Z" fill="#4295E4" fill-opacity="1.000000" fill-rule="nonzero"/>
		<path id="Vector" d="M53.5 18.16C53.5 11.25 47.9 5.66 41 5.66C34.09 5.66 28.49 11.25 28.49 18.16L28.49 18.16C28.5 25.06 34.09 30.65 41 30.66C47.9 30.66 53.5 25.06 53.5 18.16ZM51.25 18.16C51.25 23.82 46.66 28.42 41 28.42C35.33 28.42 30.74 23.82 30.74 18.16C30.74 12.49 35.33 7.91 41 7.9C46.66 7.9 51.25 12.49 51.25 18.16Z" stroke="#4295E4" stroke-opacity="1.000000" stroke-width="0.500000"/>
		<path id="Vector" d="M42.13 21.28L37.09 21.28C36.47 21.28 35.97 21.78 35.97 22.4C35.97 23.02 36.47 23.52 37.09 23.52L42.13 23.52C44.68 23.49 46.73 21.4 46.7 18.84C46.67 16.33 44.64 14.31 42.13 14.28L39.79 14.28L40.57 13.5C41.02 13.07 41.03 12.36 40.6 11.91C40.17 11.47 39.46 11.45 39.02 11.88C39.01 11.89 39 11.9 38.99 11.91L36.3 14.6C35.86 15.04 35.86 15.75 36.3 16.19C36.3 16.19 36.3 16.19 36.3 16.19L38.99 18.88C39.43 19.32 40.14 19.32 40.58 18.88C41.01 18.44 41.01 17.73 40.58 17.29L39.8 16.51L42.13 16.51C43.45 16.53 44.5 17.62 44.48 18.93C44.45 20.21 43.42 21.25 42.13 21.27L42.13 21.28Z" fill="#4295E4" fill-opacity="1.000000" fill-rule="nonzero"/>
		<path id="Vector" d="M37.09 21.28C36.47 21.28 35.97 21.78 35.97 22.4C35.97 23.02 36.47 23.52 37.09 23.52L42.13 23.52C44.68 23.49 46.73 21.4 46.7 18.84C46.67 16.33 44.64 14.31 42.13 14.28L39.79 14.28L40.57 13.5C41.02 13.07 41.03 12.36 40.6 11.91C40.17 11.47 39.46 11.45 39.02 11.88C39.01 11.89 39 11.9 38.99 11.91L36.3 14.6C35.86 15.04 35.86 15.75 36.3 16.19C36.3 16.19 36.3 16.19 36.3 16.19L38.99 18.88C39.43 19.32 40.14 19.32 40.58 18.88C41.01 18.44 41.01 17.73 40.58 17.29L39.8 16.51L42.13 16.51C43.45 16.53 44.5 17.62 44.48 18.93C44.45 20.21 43.42 21.25 42.13 21.27L42.13 21.28L37.09 21.28Z" stroke="#4295E4" stroke-opacity="1.000000" stroke-width="0.500000"/>
	</g>
</svg>
