<svg width="82.000000" height="82.000000" viewBox="0 0 82 82" fill="none" xmlns="http://www.w3.org/2000/svg" xmlns:xlink="http://www.w3.org/1999/xlink">
	<desc>
			Created with Pixso.
	</desc>
	<defs>
		<clipPath id="clip28_5041">
			<rect id="evaluate 1" rx="0.000000" width="81.000000" height="81.000000" transform="translate(0.500000 0.500000)" fill="white" fill-opacity="0"/>
		</clipPath>
	</defs>
	<rect id="evaluate 1" rx="0.000000" width="81.000000" height="81.000000" transform="translate(0.500000 0.500000)" fill="#FFFFFF" fill-opacity="0"/>
	<g clip-path="url(#clip28_5041)">
		<path id="Vector" d="M80.98 43.47C80.14 41.92 80.14 40.07 80.98 38.52C82.91 34.96 82.03 30.53 78.88 27.98C77.51 26.87 76.8 25.16 76.99 23.4C77.41 19.38 74.9 15.63 71.02 14.48C69.33 13.97 68.02 12.66 67.51 10.97C66.36 7.09 62.61 4.58 58.59 5C56.83 5.19 55.12 4.48 54.01 3.11C51.46 -0.04 47.03 -0.92 43.47 1.01C41.92 1.85 40.07 1.85 38.52 1.01C34.96 -0.92 30.53 -0.04 27.98 3.11C26.87 4.48 25.16 5.19 23.4 5C19.38 4.58 15.63 7.09 14.47 10.97C13.97 12.66 12.66 13.97 10.97 14.47C7.09 15.63 4.58 19.38 5 23.4C5.19 25.16 4.48 26.87 3.11 27.98C-0.04 30.53 -0.92 34.96 1.01 38.52C1.85 40.07 1.85 41.92 1.01 43.47C-0.92 47.03 -0.04 51.46 3.11 54.01C4.48 55.12 5.19 56.83 5 58.59C4.58 62.61 7.09 66.36 10.97 67.51C12.66 68.02 13.97 69.33 14.47 71.02C15.63 74.9 19.38 77.41 23.4 76.99C25.16 76.8 26.87 77.51 27.98 78.88C30.53 82.03 34.96 82.91 38.52 80.98C40.07 80.14 41.92 80.14 43.47 80.98C44.74 81.66 46.11 81.99 47.47 81.99C49.94 81.99 52.36 80.91 54.01 78.88C55.12 77.51 56.83 76.8 58.59 76.99C58.88 77.02 59.17 77.03 59.46 77.03C63.14 77.03 66.45 74.61 67.52 71.02C68.02 69.33 69.33 68.02 71.02 67.51C74.9 66.36 77.41 62.61 76.99 58.59C76.8 56.83 77.51 55.12 78.88 54.01C82.03 51.46 82.91 47.03 80.98 43.47ZM78.16 45C79.36 47.2 78.81 49.94 76.87 51.52C74.65 53.32 73.5 56.08 73.8 58.92C74.06 61.41 72.51 63.73 70.11 64.44C67.37 65.26 65.26 67.37 64.44 70.11C63.73 72.51 61.41 74.06 58.92 73.8C56.08 73.51 53.31 74.65 51.52 76.87C49.94 78.81 47.2 79.36 45 78.16C43.75 77.48 42.37 77.14 41 77.14C39.62 77.14 38.24 77.48 36.99 78.16C34.79 79.36 32.05 78.81 30.47 76.87C28.68 74.65 25.91 73.5 23.07 73.8C20.58 74.06 18.26 72.51 17.55 70.11C16.73 67.37 14.62 65.26 11.88 64.45C9.48 63.73 7.93 61.41 8.19 58.92C8.49 56.08 7.34 53.32 5.12 51.52C3.18 49.94 2.63 47.2 3.83 45C5.19 42.49 5.19 39.5 3.83 36.99C2.63 34.79 3.18 32.05 5.12 30.47C7.34 28.68 8.49 25.91 8.19 23.07C7.93 20.58 9.48 18.26 11.88 17.55C14.62 16.73 16.73 14.62 17.55 11.88C18.26 9.48 20.58 7.93 23.07 8.19C25.91 8.49 28.67 7.34 30.47 5.12C32.05 3.18 34.79 2.63 36.99 3.83C39.5 5.19 42.49 5.19 45 3.83C47.2 2.63 49.94 3.18 51.52 5.12C53.31 7.34 56.08 8.49 58.92 8.19C61.41 7.93 63.73 9.48 64.44 11.88C65.26 14.62 67.37 16.73 70.11 17.55C72.51 18.26 74.06 20.58 73.8 23.07C73.5 25.91 74.65 28.67 76.87 30.47C78.81 32.05 79.36 34.79 78.16 36.99C76.8 39.5 76.8 42.49 78.16 45Z" fill="#4295E4" fill-opacity="1.000000" fill-rule="nonzero"/>
		<path id="Vector" d="M56.31 12.49C50.31 9.26 43.28 8.01 36.5 8.96C29.49 9.93 23.14 13.1 18.12 18.12C13.35 22.89 10.23 28.91 9.1 35.54C8 42.02 8.87 48.59 11.6 54.54C11.87 55.12 12.45 55.47 13.06 55.47C13.28 55.47 13.51 55.42 13.73 55.32C14.53 54.95 14.88 54 14.51 53.2C9.43 42.16 11.79 28.98 20.38 20.38C29.41 11.36 43.56 9.27 54.79 15.31C55.57 15.73 56.54 15.44 56.96 14.66C57.38 13.88 57.09 12.91 56.31 12.49Z" fill="#4295E4" fill-opacity="1.000000" fill-rule="nonzero"/>
		<path id="Vector" d="M20.45 61.67L20.38 61.61C19.76 60.98 18.74 60.98 18.12 61.61C17.49 62.23 17.49 63.25 18.12 63.87L18.19 63.94C18.5 64.25 18.91 64.41 19.32 64.41C19.73 64.41 20.14 64.25 20.45 63.94C21.08 63.31 21.08 62.3 20.45 61.67Z" fill="#4295E4" fill-opacity="1.000000" fill-rule="nonzero"/>
		<path id="Vector" d="M69.39 25.47C68.96 24.69 67.99 24.41 67.21 24.83C66.44 25.26 66.15 26.23 66.58 27.01C72.75 38.28 70.7 52.51 61.61 61.61C53.04 70.17 40.34 72.56 29.25 67.68C28.44 67.33 27.5 67.69 27.14 68.5C26.78 69.31 27.15 70.26 27.96 70.61C32.09 72.43 36.5 73.35 40.96 73.35C42.88 73.35 44.81 73.18 46.72 72.84C53.24 71.67 59.17 68.57 63.87 63.87C68.92 58.83 72.09 52.43 73.05 45.38C73.98 38.55 72.68 31.48 69.39 25.47Z" fill="#4295E4" fill-opacity="1.000000" fill-rule="nonzero"/>
		<path id="Vector" d="M63.91 18.16L63.87 18.12C63.25 17.49 62.23 17.49 61.61 18.12C60.98 18.74 60.98 19.76 61.61 20.38L61.65 20.43C61.96 20.74 62.37 20.9 62.78 20.9C63.19 20.9 63.6 20.74 63.91 20.43C64.54 19.8 64.54 18.79 63.91 18.16Z" fill="#4295E4" fill-opacity="1.000000" fill-rule="nonzero"/>
		<path id="Vector" d="M61.34 42.6C61.34 40.78 60.25 39.21 58.69 38.51C58.9 37.99 59.02 37.42 59.02 36.83C59.02 34.36 57.01 32.35 54.54 32.35L47.57 32.35L48.03 30.99C48.75 28.84 48.58 26.56 47.54 24.54C46.51 22.53 44.75 21.06 42.58 20.4C41.77 20.16 40.9 20.59 40.61 21.39L38.16 28.17C37.52 29.93 36.27 31.39 34.62 32.28L32.68 33.34C32.03 32.73 31.16 32.35 30.19 32.35L23.3 32.35C21.31 32.35 19.69 33.96 19.69 35.95L19.69 55.01C19.69 57 21.31 58.61 23.3 58.61L30.19 58.61C31.3 58.61 32.28 58.11 32.94 57.33L33.68 57.62C35.36 58.28 37.12 58.61 38.93 58.61L52.53 58.61C55 58.61 57.01 56.6 57.01 54.13C57.01 53.52 56.89 52.95 56.67 52.42C58.2 51.7 59.25 50.15 59.25 48.36C59.25 47.73 59.12 47.13 58.89 46.59C60.34 45.85 61.34 44.34 61.34 42.6ZM30.59 55.01C30.59 55.23 30.41 55.41 30.19 55.41L23.3 55.41C23.08 55.41 22.9 55.23 22.9 55.01L22.9 35.95C22.9 35.73 23.08 35.55 23.3 35.55L30.19 35.55C30.36 35.55 30.5 35.65 30.56 35.79C30.57 35.83 30.58 35.87 30.59 35.91C30.59 35.93 30.59 35.94 30.59 35.95L30.59 55.01ZM56.85 43.88L49.64 43.88C48.76 43.88 48.04 44.6 48.04 45.48C48.04 46.36 48.76 47.08 49.64 47.08L54.77 47.08C55.47 47.08 56.05 47.66 56.05 48.36C56.05 49.07 55.47 49.64 54.77 49.64L49.64 49.64C48.76 49.64 48.04 50.36 48.04 51.25C48.04 52.13 48.76 52.85 49.64 52.85L52.53 52.85C53.23 52.85 53.81 53.42 53.81 54.13C53.81 54.83 53.23 55.41 52.53 55.41L51.34 55.41L38.93 55.41C37.52 55.41 36.15 55.15 34.85 54.64L33.8 54.23L33.8 36.38L36.16 35.1C38.49 33.83 40.27 31.75 41.17 29.26L43.03 24.12C43.73 24.6 44.3 25.24 44.7 26.01C45.33 27.25 45.44 28.65 44.99 29.97L43.83 33.44C43.66 33.93 43.74 34.46 44.04 34.88C44.34 35.3 44.83 35.55 45.34 35.55L54.54 35.55C55.24 35.55 55.82 36.12 55.82 36.83C55.82 37.54 55.24 38.11 54.54 38.11L49.64 38.11C48.76 38.11 48.04 38.83 48.04 39.71C48.04 40.6 48.76 41.32 49.64 41.32L56.85 41.32C57.56 41.32 58.13 41.89 58.13 42.6C58.13 43.3 57.56 43.88 56.85 43.88Z" fill="#4295E4" fill-opacity="1.000000" fill-rule="nonzero"/>
	</g>
</svg>
